# xmcd CD database file
#
# Track frame offsets:
#	150
#	16122
#	28295
#	40040
#	55865
#	77105
#	89397
#	100880
#	116350
#	130137
#	145062
#	162962
#	172307
#	187155
#	209282
#	222812
#	238950
#	255057
#	279575
#	290812
#	307562
#	318187
#	330540
#
# Disc length: 4548 seconds
#
# Revision: 2
# Processed by: cddbd v1.4PL0 Copyright (c) Steve Scherf et al.
# Submitted via: CDex 1.50beta9
#
DISCID=4311c217
DTITLE=Linda Ronstadt - Box Set [CD-4 of 4)
DYEAR=1999
DGENRE=Pop
TTITLE0=Gainesville
TTITLE1=Sandman's Coming
TTITLE2=My Hero
TTITLE3=All I Have To Do Is Dream
TTITLE4=Dreams To Dream
TTITLE5=The Blacksmith
TTITLE6=Bandit and A Heartbreaker
TTITLE7=Keep Me From Blowing Away
TTITLE8=The Sweetest Gift
TTITLE9=Freezing
TTITLE10=Poor Wandering One
TTITLE11=Sorry Her Lot
TTITLE12=I Want A Horse
TTITLE13=All That You Dream
TTITLE14=Hearts Against The Wind
TTITLE15=Tumbling Dice
TTITLE16=Boarder Town
TTITLE17=Falling Star
TTITLE18=Honky Tonk Blues
TTITLE19=Lightning Bar Blues
TTITLE20=Why
TTITLE21=I'd Like To Know
TTITLE22=Everybody Has Their Own Ideas
EXTD=YEAR: 1999
EXTT0=
EXTT1=
EXTT2=
EXTT3=
EXTT4=
EXTT5=
EXTT6=
EXTT7=
EXTT8=
EXTT9=
EXTT10=
EXTT11=
EXTT12=
EXTT13=
EXTT14=
EXTT15=
EXTT16=
EXTT17=
EXTT18=
EXTT19=
EXTT20=
EXTT21=
EXTT22=
PLAYORDER=
